<?xml version="1.0" encoding="UTF-8" standalone="no"?>
<!-- Created with Inkscape (http://www.inkscape.org/) -->

<svg
   width="646.58575"
   height="1246.7012"
   viewBox="0 0 171.07581 329.85636"
   version="1.1"
   id="svg6827"
   inkscape:version="1.1.2 (08b2f3d93c, 2022-04-05)"
   sodipodi:docname="carrots_logo.svg"
   inkscape:export-filename="/home/brennan/Website/bt-site-nextjs/public/carrots_logo.png"
   inkscape:export-xdpi="96"
   inkscape:export-ydpi="96"
   xmlns:inkscape="http://www.inkscape.org/namespaces/inkscape"
   xmlns:sodipodi="http://sodipodi.sourceforge.net/DTD/sodipodi-0.dtd"
   xmlns="http://www.w3.org/2000/svg"
   xmlns:svg="http://www.w3.org/2000/svg">
  <sodipodi:namedview
     id="namedview6829"
     pagecolor="#ffffff"
     bordercolor="#666666"
     borderopacity="1.0"
     inkscape:pageshadow="2"
     inkscape:pageopacity="0.0"
     inkscape:pagecheckerboard="0"
     inkscape:document-units="mm"
     showgrid="false"
     units="px"
     showborder="false"
     inkscape:snap-global="false"
     inkscape:zoom="0.35355339"
     inkscape:cx="309.71277"
     inkscape:cy="799.03066"
     inkscape:window-width="1920"
     inkscape:window-height="974"
     inkscape:window-x="0"
     inkscape:window-y="27"
     inkscape:window-maximized="1"
     inkscape:current-layer="layer1"
     fit-margin-top="0"
     fit-margin-left="0"
     fit-margin-right="0"
     fit-margin-bottom="0" />
  <defs
     id="defs6824" />
  <g
     inkscape:label="Layer 1"
     inkscape:groupmode="layer"
     id="layer1"
     transform="translate(398.91623,101.84562)">
    <path
       id="path17426"
       style="color:#000000;fill:#00ce51;stroke-width:1;-inkscape-stroke:none"
       d="m -283.01683,-100.36207 c 0.40148,-3.6182 -8.0038,0.27996 -10.45265,2.199464 -0.035,0.211331 -1.387,1.853573 -2.4469,4.036963 -1.46489,3.017681 -3.24448,7.326622 -5.03327,12.406479 -3.57762,10.159714 -7.23585,23.472504 -9.45523,36.945029 -2.2194,13.472525 -2.92965,27.162898 -1.17978,37.7227622 1.74988,10.559865 5.43849,17.0558798 11.21894,20.1972168 6.04468,3.28492 11.454,2.123015 19.84738,-3.7775473 8.39338,-5.9005612 17.71819,-16.652661 25.83408,-28.5155727 8.1159,-11.862908 15.17514,-24.806767 20.07216,-35.037135 2.44851,-5.115187 4.36368,-9.57195 5.58209,-12.757878 0.57538,-1.504508 0.9631,-2.665023 1.18959,-3.423565 -1.55307,-13.736981 -23.09528,-37.177896 -26.87226,-29.952176 0,0 -33.18568,69.218723 -35.93785,68.752393 -9.24129,-1.565852 7.6337,-68.796433 7.6337,-68.796433 z"
       sodipodi:nodetypes="scssssssssscsss" />
    <path
       id="path17999"
       style="color:#000000;fill:#ff8012;stroke-width:20;stroke-miterlimit:4;stroke-dasharray:none"
       d="m -331.30032,8.0989725 c -11.01204,-0.4937109 -12.34432,6.8495235 -15.64865,14.4177245 -1.53853,4.017167 -5.88521,13.741478 -5.60536,13.568163 0,0 30.7281,6.873216 30.64931,9.970968 -0.0303,1.192511 -34.30209,0.04032 -34.80202,0.728639 -0.35949,0.494948 -0.70586,1.834851 -1.06971,2.802929 -8.05942,21.443908 -17.30671,48.630501 -24.97884,75.564374 -0.80126,2.81293 -1.6788,5.67386 -2.19644,8.53189 -0.18923,1.04482 23.26162,17.57415 23.0763,18.24116 -0.23098,0.83131 -25.22921,-10.69502 -25.71573,-8.90592 -5.59284,20.56667 -9.31955,40.32029 -10.75179,55.89633 -0.92099,10.01575 -0.69858,18.36317 0.42942,23.54895 1.37546,8.4155 6.1827,5.40516 10.16786,2.9099 5.18136,-3.31407 12.01385,-9.39468 19.35591,-17.35708 14.68429,-15.92479 31.66647,-39.29493 47.28911,-63.87104 8.09829,-12.73946 15.73805,-25.86678 22.7924,-38.38422 0.87561,-1.55371 -29.22286,2.70069 -29.77491,0.88367 -0.85545,-2.81571 36.44968,-13.137255 36.88199,-14.098365 3.20286,-7.120937 6.96282,-13.601586 9.86761,-19.823077 4.89854,-10.491835 8.65777,-19.79377 10.84378,-26.826271 4.67767,-11.947067 -0.59848,-17.537951 -9.69914,-23.425959 -6.89531,-4.374595 -16.14141,-8.194116 -25.44136,-10.734228 -9.29992,-2.5401129 -18.72538,-3.8073562 -25.66974,-3.6385375 z"
       sodipodi:nodetypes="ccssscssssscccsssssccsc" />
    <path
       id="path2671"
       style="color:#000000;fill:#d26800;fill-opacity:1;stroke-width:20;stroke-miterlimit:4;stroke-dasharray:none"
       d="m -393.31955,227.98393 c 1.7579,-0.21677 3.74965,-1.46396 5.56989,-2.60368 5.18136,-3.31407 12.01385,-9.39467 19.35591,-17.35707 14.68429,-15.92479 31.66647,-39.29494 47.28911,-63.87105 8.09829,-12.73946 15.73805,-25.86678 22.7924,-38.38422 0.87561,-1.55371 -29.22286,2.70069 -29.77491,0.88367 -0.85545,-2.81571 36.44968,-13.13726 36.88199,-14.098369 3.20286,-7.120938 6.96282,-13.601586 9.86761,-19.823075 4.89854,-10.491835 8.65777,-19.79377 10.84378,-26.826271 4.67767,-11.947067 -0.59848,-17.537951 -9.69914,-23.425959 -4.76821,-3.025095 -10.66054,-5.784758 -16.91746,-8.039468"
       sodipodi:nodetypes="cccsssccccc" />
    <path
       id="path3893"
       style="color:#000000;fill:none;fill-opacity:0.236295;stroke-width:3.77953;-inkscape-stroke:none"
       d="M 563.17124 3.1779987 C 554.81384 -0.6468262 548.22581 -0.35697225 545.02129 5.7735685 C 545.02129 5.7735685 419.5951 267.38764 409.1932 265.62513 C 374.26549 259.70695 438.04498 5.6071181 438.04498 5.6071181 L 438.04498 5.6071181 C 439.56238 -8.0679685 407.79439 6.6652346 398.5389 13.920053 C 398.40661 14.718784 393.29669 20.925683 389.29077 29.177866 C 383.75418 40.583274 377.02817 56.869036 370.26739 76.068495 C 356.74568 114.46741 342.91929 164.78347 334.53109 215.70325 C 326.1428 266.62303 323.45839 318.36617 330.07208 358.27747 C 336.6858 398.18877 350.627 422.74064 372.47437 434.61341 C 376.93563 437.03783 381.30531 438.82137 385.6853 439.95581 "
       transform="matrix(0.26458333,0,0,0.26458333,-398.91623,-101.84562)" />
    <path
       id="path4414"
       style="color:#000000;fill:#008635;fill-opacity:1;stroke-width:3.77953;-inkscape-stroke:none"
       d="m 385.6853,439.95581 c 18.04984,4.67502 36.27449,-1.6733 61.80279,-19.61975 31.72301,-22.30133 66.96639,-62.93919 97.64062,-107.77539 30.67426,-44.83619 57.92628,-94.24021 76.4347,-132.90617 9.25421,-19.33299 16.49265,-36.17745 21.09766,-48.21875 2.17466,-5.68633 3.64006,-10.07253 4.49609,-12.93946 -4.5522,-40.264387 -39.16374,-75.81549 -55.48439,-93.046585"
       transform="matrix(0.26458333,0,0,0.26458333,-398.91623,-101.84562)"
       sodipodi:nodetypes="csssscc" />
  </g>
</svg>
